<?xml version="1.0" encoding="UTF-8" standalone="yes"?>
<svg xmlns="http://www.w3.org/2000/svg" viewBox="0 0 512 512" width="80" height="80">
  <circle cx="256" cy="256" r="256" class=" ns-fill-14" fill="#ffd05b"/>
  <path d="M195.743,221.661c-5.217,5.252-5.853,13.515-1.501,19.509c10.24,14.08,21.575,27.33,33.898,39.636c13.753,13.798,28.698,26.35,44.668,37.517c5.994,4.202,14.151,3.496,19.332-1.677l28.425-28.425c7.821-7.821,20.515-7.821,28.337,0l49.611,49.611c7.821,7.821,7.821,20.515,0,28.337l-13.418,13.418c-19.553,19.756-48.004,27.86-75.034,21.363c-25.079-6.647-48.922-17.293-70.621-31.514c-19.977-12.659-38.506-27.454-55.261-44.138c-15.404-15.325-29.246-32.15-41.313-50.229c-13.277-19.562-23.79-40.863-31.25-63.294c-9.172-28.593-1.571-59.913,19.686-81.126l15.625-15.89c7.821-7.821,20.515-7.821,28.337,0l49.611,49.611c7.821,7.821,7.821,20.515,0,28.337L195.743,221.661z" class=" ns-fill-15" fill="#9777a8"/>
</svg>